<svg xmlns:x="http://ns.adobe.com/Extensibility/1.0/" xmlns:i="http://ns.adobe.com/AdobeIllustrator/10.0/" xmlns:graph="http://ns.adobe.com/Graphs/1.0/" xmlns="http://www.w3.org/2000/svg" xmlns:xlink="http://www.w3.org/1999/xlink" xmlns:a="http://ns.adobe.com/AdobeSVGViewerExtensions/3.0/" version="1.1" x="0px" y="0px" viewBox="0 0 100 125" enable-background="new 0 0 100 100" xml:space="preserve"><path d="M30,65C14.7,70.2,5.1,79.4,5.1,79.4h89.8c-8.6-7.2-17-11.7-25-14.5c-2-9.3,0.9-20.3,3.1-26.7c4.5,1.4,9,4.6,12.5,11.1  c0,0,3.2-6.5-3.5-14.9c0,0,3.9-0.1,11.2,2.1c0,0-0.2-10.6-14.1-8l-2-7.9l-6.4,5.3c-7.9-5-16.2,1.7-16.2,1.7  c6.6-1.7,11.8,3.6,11.8,3.6c-9.1,1.1-10.2,8.2-10.2,8.2s6.8-3.2,14.4-1.8c-4.1,4.9-9.7,13.4-11.2,24.7c-6.6-1-12.8-0.8-18.5,0.1  c-1.4-11.3-7-19.9-11.2-24.8c7.6-1.3,14.4,1.8,14.4,1.8s-1.1-7.1-10.2-8.2c0,0,5.2-5.3,11.8-3.6c0,0-8.3-6.7-16.2-1.7l-6.4-5.3  l-2,7.9c-13.9-2.6-14.1,8-14.1,8c7.3-2.2,11.2-2.1,11.2-2.1c-6.6,8.4-3.5,14.9-3.5,14.9c3.4-6.5,8-9.7,12.5-11.1  C29.2,44.6,32.1,55.7,30,65z"/></svg>